<svg version="1.2" xmlns="http://www.w3.org/2000/svg" viewBox="0 0 2048 2048" width="2048" height="2048">
	<title>Eric</title>
	<style>
		.s0 { fill: #415a77 } 
		.s1 { fill: #e0e1dd } 
	</style>
	<path id="Shape 1" class="s0" d="m100 0h1848c55.2 0 100 44.8 100 100v1848c0 55.2-44.8 100-100 100h-1848c-55.2 0-100-44.8-100-100v-1848c0-55.2 44.8-100 100-100z"/>
	<path id="EW" class="s1" aria-label="EW"  d="m142.8 1479h592.8v-156h-421.2v-224.9h377v-156h-377v-217.1h413.4v-156h-585zm793 0h296.4l117-808.6h23.4l117 808.6h296.4l119.6-910h-170.3l-88.4 790.4h-23.4l-114.4-790.4h-296.4l-114.4 790.4h-23.4l-88.4-790.4h-170.3z"/>
</svg>